
<svg version="1.0" xmlns="http://www.w3.org/2000/svg"
 width="512.000000pt" height="512.000000pt" viewBox="0 0 512.000000 512.000000"
 preserveAspectRatio="xMidYMid meet">
<g transform="translate(0.000000,512.000000) scale(0.100000,-0.100000)"
fill="#fff" stroke="none">
<path d="M53 4575 c-17 -7 -36 -22 -42 -34 -15 -27 -15 -3384 -1 -3412 25 -45
52 -49 344 -49 l275 0 -86 -137 c-47 -75 -92 -151 -99 -170 -31 -74 -3 -164
67 -210 l43 -28 191 0 190 0 69 34 c65 32 75 42 264 271 l197 238 356 4 c335
3 358 4 378 22 46 41 43 122 -4 164 -24 20 -37 22 -131 22 l-104 0 0 110 0
110 600 0 600 0 0 -110 0 -110 -96 0 c-92 0 -97 -1 -125 -29 -23 -23 -29 -38
-29 -71 0 -52 13 -76 50 -95 24 -12 85 -15 357 -16 l328 0 192 -239 c186 -231
194 -239 260 -272 l68 -33 200 0 201 0 43 28 c70 46 98 136 67 210 -7 19 -52
95 -99 170 l-86 137 275 0 c292 0 319 4 344 49 15 28 14 3385 -1 3413 -27 51
106 48 -2551 48 -2080 -1 -2478 -3 -2505 -15z m4867 -1525 l0 -1330 -2360 0
-2360 0 0 1330 0 1330 2360 0 2360 0 0 -1330z m-3170 -1650 l0 -110 -775 0
-775 0 0 110 0 110 775 0 775 0 0 -110z m3170 0 l0 -110 -775 0 -775 0 0 110
0 110 775 0 775 0 0 -110z m-3772 -372 c-24 -29 -82 -98 -128 -153 -45 -55
-92 -107 -104 -115 -29 -21 -253 -29 -240 -9 9 16 144 233 181 292 l23 37 156
0 156 0 -44 -52z m3198 -118 l103 -165 -87 -3 c-107 -4 -161 4 -187 26 -16 13
-187 220 -248 300 -8 10 22 12 153 10 l163 -3 103 -165z"/>
<path d="M2405 4146 c-265 -52 -478 -211 -600 -447 -71 -138 -90 -218 -89
-389 0 -202 33 -316 139 -475 157 -236 418 -375 704 -375 391 0 720 255 827
640 14 49 18 101 18 210 0 172 -12 228 -84 375 -55 113 -130 210 -222 285 -74
60 -235 141 -328 165 -90 22 -277 28 -365 11z m353 -229 c102 -35 174 -80 251
-158 77 -76 122 -148 159 -251 22 -63 26 -89 27 -193 0 -139 -20 -217 -82
-325 -54 -92 -162 -197 -250 -243 -257 -134 -548 -90 -754 113 -208 206 -248
525 -97 777 42 72 149 179 220 221 57 34 145 68 213 82 74 16 233 4 313 -23z"/>
<path d="M2370 3689 c-14 -5 -39 -24 -57 -41 -48 -47 -55 -100 -51 -376 3
-201 6 -242 21 -269 41 -76 145 -105 228 -63 76 39 403 231 423 248 31 29 46
69 46 125 0 90 -16 105 -269 251 -184 106 -231 130 -269 132 -26 2 -58 -1 -72
-7z m350 -380 c0 -3 -33 -24 -72 -47 -40 -23 -97 -55 -125 -72 l-53 -30 0 149
0 149 125 -71 c68 -40 125 -74 125 -78z"/>
<path d="M987 2389 c-25 -15 -47 -63 -47 -104 l0 -35 -71 0 c-114 0 -159 -33
-159 -116 0 -26 8 -44 29 -65 28 -27 34 -29 114 -29 l85 0 4 -57 c4 -46 10
-61 32 -80 29 -25 92 -31 127 -13 27 15 49 63 49 110 l0 40 1601 0 1601 0 29
29 c41 41 41 98 0 143 l-29 33 -1601 3 -1601 2 0 35 c0 47 -19 84 -51 101 -32
16 -86 18 -112 3z"/>
<path d="M2498 1261 c-64 -57 -35 -161 50 -177 43 -8 94 16 111 52 49 108 -74
203 -161 125z"/>
</g>
</svg>
