
<svg version="1.0" xmlns="http://www.w3.org/2000/svg"
 width="512.000000pt" height="512.000000pt" viewBox="0 0 512.000000 512.000000"
 preserveAspectRatio="xMidYMid meet">
<g transform="translate(0.000000,512.000000) scale(0.100000,-0.100000)"
fill="#fff" stroke="none">
<path d="M1020 4100 l0 -260 -255 0 -255 0 0 -255 0 -255 -255 0 -255 0 0
-1285 0 -1285 2050 0 2050 0 0 260 0 260 255 0 255 0 0 255 0 255 255 0 255 0
0 1285 0 1285 -2050 0 -2050 0 0 -260z m3840 -1030 l0 -1020 -125 0 -125 0 0
895 0 895 -1665 0 -1665 0 0 125 0 125 1790 0 1790 0 0 -1020z m-510 -510 l0
-1020 -125 0 -125 0 0 895 0 895 -1665 0 -1665 0 0 125 0 125 1790 0 1790 0 0
-1020z m-510 -510 l0 -1020 -1790 0 -1790 0 0 1020 0 1020 1790 0 1790 0 0
-1020z"/>
<path d="M1530 2049 c0 -666 2 -770 14 -766 25 10 1016 757 1016 766 0 9
-1012 771 -1023 771 -4 0 -7 -347 -7 -771z m584 -9 c-14 -12 -288 -215 -301
-224 -10 -6 -13 44 -13 234 l0 240 161 -121 c89 -66 157 -124 153 -129z"/>
</g>
</svg>
