
<svg version="1.0" xmlns="http://www.w3.org/2000/svg"
 width="512.000000pt" height="512.000000pt" viewBox="0 0 512.000000 512.000000"
 preserveAspectRatio="xMidYMid meet">
<g transform="translate(0.000000,512.000000) scale(0.100000,-0.100000)"
fill="#fff" stroke="none">
<path d="M440 4988 c-156 -27 -285 -164 -311 -329 -6 -41 -9 -714 -7 -1854 l3
-1790 23 -55 c12 -30 38 -76 57 -102 73 -99 60 -94 1086 -420 518 -164 969
-303 1004 -309 133 -23 285 25 393 126 107 99 152 217 152 397 l0 108 248 0
c274 0 325 7 418 60 96 55 177 152 218 258 21 56 21 67 24 830 l2 772 292 0
291 0 -85 -88 c-99 -103 -119 -148 -99 -229 16 -62 44 -99 93 -124 45 -23 125
-27 173 -9 43 16 542 515 566 565 23 49 24 104 4 152 -19 44 -477 511 -544
554 -73 47 -173 39 -234 -19 -55 -52 -72 -117 -52 -195 11 -41 27 -64 101
-138 l89 -89 -298 0 -297 0 0 743 c0 818 1 800 -63 921 -41 78 -125 162 -203
203 -123 65 -49 62 -1596 65 -773 2 -1425 0 -1448 -4z m1017 -670 c505 -160
928 -298 941 -306 13 -8 31 -29 40 -46 16 -29 17 -151 20 -1696 2 -1238 -1
-1672 -9 -1693 -15 -36 -55 -67 -87 -67 -29 0 -1830 568 -1849 583 -10 7 -13
370 -13 1751 0 1752 0 1766 32 1766 4 0 421 -131 925 -292z"/>
<path d="M1814 2551 c-109 -49 -141 -207 -61 -298 49 -55 77 -63 238 -63 133
0 145 2 185 25 45 27 94 106 94 154 0 78 -46 151 -115 182 -59 27 -282 27
-341 0z"/>
</g>
</svg>
