
<svg xmlns="http://www.w3.org/2000/svg" version="1.1" width="512px" height="512px" style="shape-rendering:geometricPrecision; text-rendering:geometricPrecision; image-rendering:optimizeQuality; fill-rule:evenodd; clip-rule:evenodd" xmlns:xlink="http://www.w3.org/1999/xlink">
<g><path style="opacity:0.984" fill="#fff" d="M 170.5,3.5 C 177.97,1.82347 183.803,4.15681 188,10.5C 204.628,32.2915 221.794,53.6248 239.5,74.5C 258.281,51.2126 277.281,28.046 296.5,5C 304.346,1.61721 310.513,3.45054 315,10.5C 315.854,14.6251 315.52,18.6251 314,22.5C 297.833,42.6667 281.667,62.8333 265.5,83C 324.167,83.3333 382.833,83.6667 441.5,84C 459.333,88.5 470.5,99.6667 475,117.5C 475.667,145.167 475.667,172.833 475,200.5C 467.333,211.167 459.667,211.167 452,200.5C 451.667,176.167 451.333,151.833 451,127.5C 450.519,118.363 446.019,112.196 437.5,109C 307.529,107.344 177.529,107.01 47.5,108C 35.6667,109.167 29.1667,115.667 28,127.5C 27.0157,214.863 27.3491,302.197 29,389.5C 31.1667,395.667 35.3333,399.833 41.5,402C 86.1344,403.302 130.801,403.969 175.5,404C 186.167,411.667 186.167,419.333 175.5,427C 138.168,427.5 100.835,427.667 63.5,427.5C 66.0134,440.222 68.8467,452.889 72,465.5C 73.0674,466.191 74.2341,466.691 75.5,467C 121.5,467.333 167.5,467.667 213.5,468C 224.167,475.667 224.167,483.333 213.5,491C 164.833,491.667 116.167,491.667 67.5,491C 59.1564,488.315 52.9897,483.148 49,475.5C 44.6923,459.27 40.8589,442.936 37.5,426.5C 19.5842,422.418 8.41749,411.418 4,393.5C 3.00982,300.123 3.34315,206.79 5,113.5C 10.696,98.0593 21.5293,88.226 37.5,84C 96.1667,83.6667 154.833,83.3333 213.5,83C 197.333,62.8333 181.167,42.6667 165,22.5C 161.645,14.5088 163.478,8.17545 170.5,3.5 Z"/></g>
<g><path style="opacity:0.959" fill="#fff" d="M 333.5,195.5 C 400.981,191.321 452.481,217.654 488,274.5C 511.805,320.169 514.138,366.836 495,414.5C 469.699,467.585 427.866,498.418 369.5,507C 301.984,511.661 250.484,485.494 215,428.5C 195.043,391.462 190.043,352.462 200,311.5C 216.068,257.098 250.902,220.598 304.5,202C 314.19,199.324 323.857,197.157 333.5,195.5 Z M 350.5,219.5 C 361,219.877 371.334,221.377 381.5,224C 371.653,234.014 361.653,243.848 351.5,253.5C 341.347,243.848 331.347,234.014 321.5,224C 331.151,221.469 340.818,219.969 350.5,219.5 Z M 294.5,232.5 C 309.104,247.605 323.938,262.605 339,277.5C 339.667,284.5 339.667,291.5 339,298.5C 325.5,312 312,325.5 298.5,339C 291.5,339.667 284.5,339.667 277.5,339C 262.805,323.971 247.805,309.304 232.5,295C 246.689,267.644 267.356,246.811 294.5,232.5 Z M 407.5,232.5 C 435.285,246.451 456.285,267.285 470.5,295C 455.195,309.304 440.195,323.971 425.5,339C 418.5,339.667 411.5,339.667 404.5,339C 391.333,325.833 378.167,312.667 365,299.5C 364.333,291.833 364.333,284.167 365,276.5C 379.755,262.248 393.922,247.581 407.5,232.5 Z M 223.5,321.5 C 233.812,331.146 243.812,341.146 253.5,351.5C 243.848,361.653 234.014,371.653 224,381.5C 219.501,361.538 219.335,341.538 223.5,321.5 Z M 350.5,321.5 C 361.426,330.758 371.76,340.758 381.5,351.5C 371.833,361.833 361.833,371.833 351.5,381.5C 341.167,371.833 331.167,361.833 321.5,351.5C 331.188,341.479 340.855,331.479 350.5,321.5 Z M 478.5,321.5 C 480.068,323.811 480.902,326.478 481,329.5C 484.062,346.928 483.395,364.261 479,381.5C 468.986,371.653 459.152,361.653 449.5,351.5C 459.188,341.479 468.855,331.479 478.5,321.5 Z M 277.5,363.5 C 284.508,363.334 291.508,363.5 298.5,364C 312,377.5 325.5,391 339,404.5C 339.667,411.5 339.667,418.5 339,425.5C 323.971,440.195 309.304,455.195 295,470.5C 267.5,456.333 246.667,435.5 232.5,408C 248.006,393.661 263.006,378.827 277.5,363.5 Z M 404.5,363.5 C 411.508,363.334 418.508,363.5 425.5,364C 440.195,379.029 455.195,393.696 470.5,408C 456.333,435.5 435.5,456.333 408,470.5C 394.029,455.529 379.696,440.862 365,426.5C 364.333,418.833 364.333,411.167 365,403.5C 378.369,390.299 391.535,376.965 404.5,363.5 Z M 350.5,449.5 C 361.246,458.743 371.58,468.576 381.5,479C 361.518,484.983 341.518,484.983 321.5,479C 331.369,469.298 341.036,459.465 350.5,449.5 Z"/></g>
</svg>
