
<svg version="1.0" xmlns="http://www.w3.org/2000/svg"
 width="512.000000pt" height="512.000000pt" viewBox="0 0 512.000000 512.000000"
 preserveAspectRatio="xMidYMid meet">

<g transform="translate(0.000000,512.000000) scale(0.100000,-0.100000)"
fill="#fff" stroke="none">
<path d="M2355 5110 c-504 -43 -968 -225 -1375 -538 -116 -90 -360 -337 -446
-452 -281 -375 -437 -744 -505 -1195 -28 -184 -31 -510 -6 -694 65 -466 239
-881 526 -1251 80 -103 309 -335 410 -415 560 -441 1238 -630 1940 -539 451
58 891 246 1261 538 97 76 320 299 396 396 292 370 476 804 540 1270 23 169
23 491 0 659 -40 295 -111 528 -241 796 -340 699 -985 1205 -1750 1374 -216
48 -535 69 -750 51z m204 -1194 c385 -107 685 -414 782 -800 26 -102 36 -320
20 -426 -22 -144 -95 -334 -170 -444 l-20 -29 305 -300 305 -300 -138 -139
c-76 -76 -142 -138 -146 -138 -5 0 -143 132 -308 293 -165 160 -303 293 -308
295 -5 2 -35 -13 -67 -33 -74 -44 -190 -89 -302 -117 -124 -31 -348 -31 -480
0 -295 68 -553 255 -706 512 -190 321 -206 723 -40 1053 124 245 340 442 591
537 149 57 237 70 423 66 139 -3 180 -8 259 -30z m1391 -2513 c0 -57 -19 -101
-66 -153 -47 -52 -120 -90 -174 -90 -36 0 -48 7 -96 52 l-55 52 143 143 143
143 52 -52 c48 -47 53 -57 53 -95z"/>
<path d="M2158 3620 c-296 -50 -541 -274 -620 -569 -28 -102 -29 -277 -4 -376
145 -558 806 -776 1248 -411 248 205 339 551 227 861 -124 343 -490 555 -851
495z"/>
</g>
</svg>
